HIERARCHY
ROOT Hips
{
   OFFSET 0.00000 0.00000 0.00000
   CHANNELS 6 Xposition Yposition Zposition Zrotation Xrotation Yrotation
   JOINT Spine
   {
      OFFSET 0.000000 13.079551 0.000000
      CHANNELS 3 Zrotation Xrotation Yrotation
      JOINT Spine1
      {
         OFFSET -0.000000 28.223142 0.140426
         CHANNELS 3 Zrotation Xrotation Yrotation
         JOINT HEad
         {
            OFFSET 0.000000 9.607577 0.012474
            CHANNELS 3 Zrotation Xrotation Yrotation
            End Site
            {
               OFFSET -0.319000 14.051621 2.765345
            }
         }
         JOINT LeftShoulder1
         {
            OFFSET 9.889000 -0.398475 -0.242000
            CHANNELS 3 Zrotation Xrotation Yrotation
            JOINT LeftArm
            {
               OFFSET 11.310971 -0.003718 0.354332
               CHANNELS 3 Zrotation Xrotation Yrotation
               JOINT LeftForeArm
               {
                  OFFSET 36.043591 0.109054 -1.566774
                  CHANNELS 3 Zrotation Xrotation Yrotation
                  JOINT LeftHand
                  {
                     OFFSET 30.320732 0.093896 1.124376
                     CHANNELS 3 Zrotation Xrotation Yrotation
                     End Site
                     {
                        OFFSET 18.418731 -0.660000 1.653201
                     }
                  }
               }
            }
         }
         JOINT RightShoulder
         {
            OFFSET -9.889000 -0.398475 -0.242000
            CHANNELS 3 Zrotation Xrotation Yrotation
            JOINT RightArm
            {
               OFFSET -11.310971 -0.003718 0.354332
               CHANNELS 3 Zrotation Xrotation Yrotation
               JOINT RightForeArm
               {
                  OFFSET -36.186809 0.109054 -1.566774
                  CHANNELS 3 Zrotation Xrotation Yrotation
                  JOINT RightHand
                  {
                     OFFSET -30.241313 0.093896 1.124376
                     CHANNELS 3 Zrotation Xrotation Yrotation
                     End Site
                     {
                        OFFSET -18.294322 -0.660000 1.653201
                     }
                  }
               }
            }
         }
      }
   }
   JOINT LeftUpLeg
   {
      OFFSET 9.840380 -9.533777 0.111815
      CHANNELS 3 Zrotation Xrotation Yrotation
      JOINT LeftLeg
      {
         OFFSET 0.000000 -48.864969 1.509970
         CHANNELS 3 Zrotation Xrotation Yrotation
         JOINT LeftFoot
         {
            OFFSET -0.278905 -46.301641 -1.606649
            CHANNELS 3 Zrotation Xrotation Yrotation
            JOINT LeftToes
            {
               OFFSET -0.044000 -4.856599 9.349010
               CHANNELS 3 Zrotation Xrotation Yrotation
               End Site
               {
                  OFFSET 0.088000 -0.052195 10.757769
               }
            }
         }
      }
   }
   JOINT RightUpLeg
   {
      OFFSET -9.840380 -9.533777 0.111815
      CHANNELS 3 Zrotation Xrotation Yrotation
      JOINT RightLeg
      {
         OFFSET 0.000000 -48.864969 1.509970
         CHANNELS 3 Zrotation Xrotation Yrotation
         JOINT RightFoot
         {
            OFFSET 0.278905 -46.301641 -1.606649
            CHANNELS 3 Zrotation Xrotation Yrotation
            JOINT RightToes
            {
               OFFSET 0.044000 -4.856599 9.349010
               CHANNELS 3 Zrotation Xrotation Yrotation
               End Site
               {
                  OFFSET -0.088000 -0.151195 10.757769
               }
            }
         }
      }
   }
}
MOTION
Frames: 9
Frame Time: 0.016670
39.055886 101.990307 -118.117436 4.390749 -18.651430 -10.077687 -9.279778 30.183958 155.378853 39.314685 -28.700434 -125.770543 -9.485838 -7.061561 95.803402 45.262383 66.652865 -55.260810 -82.759121 231.295805 -116.064421 47.389082 266.572694 -1.895332 -90.278223 -40.548617 -82.841274 347.691545 238.810461 305.918955 280.370468 225.108869 204.125135 -5.836864 126.541740 71.569427 -1.678592 16.483388 40.952684 6.783664 5.610625 1.399358 0.030297 14.851825 51.246527 -32.155878 22.874350 -9.227205 -17.169139 30.766652 -43.228626 -13.099155 33.320200 27.594659 9.393184 14.962339 5.399871 -63.050835 4.064323 23.206340 11.224332 51.536721 -58.102466
38.342127 99.891385 -118.239554 6.183335 -20.160131 -5.528987 -15.382730 31.757286 154.859636 39.781853 -31.667615 -124.434954 -8.128849 -8.867366 96.551663 47.813349 63.640001 -54.118977 -84.090311 231.767689 -112.892215 43.994065 264.359740 -1.145767 -92.446686 -37.737813 -84.943149 345.743575 240.176909 309.954203 283.772995 230.455418 205.970119 -13.732423 124.669653 77.268660 -7.195049 18.900418 42.622686 4.576563 3.106617 -0.556737 1.801005 19.594617 49.629230 -29.649414 21.426247 -10.029088 -21.531873 30.129733 -44.902053 -11.558394 32.988376 24.182635 11.058311 21.048845 2.974132 -62.130522 5.140035 24.340947 11.269041 47.389492 -57.621607
37.345960 97.546757 -118.600195 8.279655 -21.569997 -2.166387 -19.874184 36.266027 154.755612 41.266514 -28.741836 -123.379376 -5.980518 -8.652362 97.901978 52.089577 59.967176 -50.924285 -86.545265 234.231611 -112.268236 42.214213 265.452543 -0.897647 -93.912711 -37.337390 -83.979662 348.431418 244.146614 310.705797 282.771607 231.650592 206.471004 -18.315477 125.554641 84.652258 -4.260849 18.547534 43.634250 2.277960 0.940629 -1.475806 4.005962 23.929530 45.972665 -27.470290 19.007235 -10.867391 -25.855266 29.341615 -46.231153 -11.623287 32.580436 20.203314 12.657071 24.556176 0.791314 -60.347768 8.513575 27.451097 9.439889 58.104877 -63.078300
36.149313 94.910468 -118.986538 10.163713 -23.684926 4.711422 -24.428154 44.440523 152.848350 43.049928 -26.224680 -122.932996 -3.820214 -10.946050 100.461632 56.555411 55.864134 -50.208106 -85.675618 236.665536 -107.471729 43.738079 273.014491 -5.352571 -85.746045 -49.889689 -79.055854 352.671627 245.021808 310.480811 284.382248 234.131563 206.850681 -21.895211 125.867573 89.316642 -5.468035 20.685807 46.958814 0.324314 -0.455190 -1.772157 8.210035 27.369750 39.678905 -25.472810 15.768243 -11.833162 -30.124891 28.552889 -47.397227 -10.587667 33.638914 13.894491 17.393398 29.340509 -1.027556 -60.992080 9.049511 26.056424 9.385738 43.998320 -62.628866
34.809980 91.661089 -119.553955 12.771739 -25.408708 11.069679 -26.315855 53.122247 150.124184 46.775646 -27.523994 -119.511536 -2.221777 -15.244830 102.903521 58.989100 55.650158 -44.778457 -78.843414 247.535481 -103.525478 39.109783 279.698651 -15.391092 -92.467477 -33.605603 -94.080282 353.737464 246.352055 316.309448 288.650624 234.404934 209.841757 -24.624966 127.799014 89.958045 -3.409526 10.610374 36.637220 -1.640713 -0.978625 -0.138382 13.596964 28.967748 30.455872 -23.478552 11.639987 -12.483956 -34.486390 27.422906 -48.950542 -10.177316 34.316851 5.310563 21.068062 34.323220 0.941158 -60.273797 10.444873 25.455401 2.437539 55.222390 -62.227197
33.484828 88.338088 -120.099867 15.120256 -25.967630 17.537544 -32.936125 64.142587 149.163026 46.428385 -26.331651 -116.159306 0.663976 -17.751709 104.819239 60.944788 43.161827 -42.947908 -76.250060 253.917637 -98.304126 35.127243 285.727440 -26.383776 -81.722687 -47.420958 -85.359989 359.258169 246.258728 314.295826 290.696457 237.716046 208.613170 -13.612577 124.078022 88.471652 -7.643572 25.683974 50.200494 -4.414194 -2.481423 4.804068 21.935354 28.885375 18.360570 -21.503382 7.160445 -11.366312 -39.193767 25.424408 -50.286004 -8.549723 34.604108 -5.749877 14.166404 43.618773 17.626406 -58.537050 12.042167 24.865795 -1.782474 42.793843 -70.753226
32.086648 85.000743 -120.742434 22.755472 -30.568341 20.570175 -38.336581 74.099308 149.901629 48.861261 -15.641966 -111.758164 5.813265 -17.021369 105.568954 61.008670 33.641653 -42.189566 -75.611143 258.508754 -98.479204 30.699556 294.221545 -33.953881 -84.656015 -36.255891 -95.807337 356.542186 243.159871 312.386515 285.466691 233.210361 207.671465 -14.608105 122.429898 83.155060 -8.518925 7.583253 37.361326 -8.409144 0.457413 10.349792 28.243788 29.898685 2.670517 -19.125180 4.930908 -11.064737 -42.946153 23.793427 -52.283363 -7.996489 29.845089 -7.990963 -23.086990 64.330717 63.391088 -68.266300 14.648666 30.153308 -4.295992 47.623941 -62.254941
30.545661 81.726807 -121.573408 24.511947 -30.816816 37.831660 -42.232658 82.404552 149.709345 49.692020 -20.856290 -105.359793 10.453107 -11.828388 105.803332 62.358138 29.383832 -40.139604 -77.054424 259.870721 -97.550633 27.290987 304.003770 -40.759478 -87.101038 -41.450270 -90.987580 356.570353 242.085099 307.163552 279.872657 224.916777 205.287127 -11.236062 110.926432 81.294216 -17.011833 15.170275 42.693911 -7.840623 -1.807835 12.461542 35.775817 25.057143 -14.087170 -16.831275 0.174257 -11.340982 -46.616625 22.070371 -54.456443 -8.820259 33.562433 23.098718 -121.772028 152.823966 116.955187 -79.221978 23.141948 33.031772 10.567662 38.930610 -71.027813
28.942041 78.706855 -122.604263 25.527180 -28.979034 45.969816 -50.557313 91.093550 149.254919 53.914126 -10.965934 -98.862829 15.010024 -1.439968 104.439384 61.798063 21.467795 -37.076343 -78.597029 260.842520 -98.754830 22.513125 310.112773 -49.825663 -89.169137 -36.878087 -96.685426 354.732104 242.503981 300.300905 274.483965 210.997616 205.029616 -10.394378 99.696330 85.768420 -16.424016 5.211212 43.339432 -9.741463 -4.879403 19.847821 38.917103 20.118442 -25.922101 -15.290352 -6.597544 -8.678508 -51.499787 18.622371 -55.315803 -10.089672 33.435361 36.951672 -125.773808 174.789172 108.536453 -75.794841 42.943452 27.331472 8.871097 45.066059 -75.859141
